<svg version="1.0" xmlns="http://www.w3.org/2000/svg" width="400" height="352" viewBox="0 0 300 264"><path d="M62.9 2.9c-2 1.6-2.4 2.9-2.4 7v5l-4.6 1.2c-4.2 1.1-4.5 1.4-4.1 4 .2 1.6.6 2.9.8 2.9.2 0 3.1-.9 6.4-2.1 5.1-1.7 6.5-1.9 9.5-.9 2.1.7 10.6 1.3 19.8 1.3 16.1.2 16.2.2 16.5-2.1.5-3 2.2-2.8 2.2.3 0 1.4-.4 2.5-1 2.5-.7 0-1 23.9-1 69.8v69.7l22.2 8.4 22.2 8.3 18.1-6.8c9.9-3.7 19.9-7.6 22.3-8.6l4.3-1.8-.3-71.4c-.2-39.3 0-70.5.5-69.4.7 2.1 1.1 2.1 17.5 1.5 9.2-.3 18.1-1.1 19.9-1.7 2.7-1 4.3-.8 9.3.9 3.3 1.2 6.2 2.1 6.4 2.1.2 0 .6-1.3.8-2.9.4-2.6.1-2.9-4.3-4-4.6-1.2-4.7-1.4-4.2-4.4 1-6.6-3.5-11.7-9.1-10.3-4.9 1.2-5.8 7.9-1.6 12.4 1.4 1.5 1.6 2.3.8 2.8-1.7 1.1-35.1.5-36.2-.6-1.4-1.4-88.3-1.4-88.8 0s-33.6 1.6-35 .2c-.8-.8-.9-1.2-.1-1.2 1.2 0 4.3-6 4.3-8.4C74 4.2 70.3 1 67.6 1c-1.3 0-3.4.9-4.7 1.9zm6.9 4.4c.4 1.8-2.3 5.7-3.9 5.7-1.4 0-2-3.9-.9-6 1.3-2.5 4.3-2.3 4.8.3zM235 6.9c1.2 2.4 1.2 3.2 0 5.1-.7 1.2-1.2 1.2-2.9-.4-2.1-1.9-2.7-4.6-1.4-5.9 1.2-1.3 3.2-.7 4.3 1.2zM140 66c2.6 1.4 4 6.3 4 14.4v7.1l9.9-9.7c11-10.7 15.1-13.4 18-11.9 5.1 2.8 3.4 6.3-6.2 13.5-4 3-8.8 6.8-10.7 8.5l-3.5 3 4.3.1c6.7 0 7.7 1.1 11.2 11.4 3 9.2 4.8 11.8 9.2 14 3.2 1.6 3.4 4.2.3 6.2-2.2 1.4-3.2 1.5-6.6.5-4.8-1.4-8-6-10.4-14.6-2.1-7.4-3.9-9.5-8-9.5-5.8 0-7.4 2.4-7.7 11.5-.3 7.5-.5 8-3 9.5-2.1 1.1-3.2 1.2-4.5.4-1.7-1-1.8-3-1.4-22.7.3-19.1.2-21.7-1.2-22.3-.9-.3-2.6.1-3.9 1-3.2 2.3-5.5 2-7.4-.9-2.2-3.4-1.3-5 4.3-7.9 5-2.6 10.2-3.3 13.3-1.6zM92 189.4c-1.1 2.4-2.2 7.9-2.6 12.7l-.7 8.4h-4.1c-7.3.1-14.5 7.8-14.6 15.7 0 3-3.2 5.8-6.7 5.8-3 0-3.7-3.2-2.9-12.4.7-8.3-.4-10.3-4.9-9.2-3.2.8-4.5 4.1-4.5 10.9C51 233 55.5 240 63 240c2.3 0 5.5-.8 7.1-1.7 2.7-1.6 3.1-1.6 5.8 0 4.1 2.4 10.2 2.2 13.5-.4l2.7-2.2 1.5 2.2c1.7 2.3 8 2.9 11.5 1.1 1.8-1 1.9-.6 1.9 9.5 0 11.8.9 14.5 4.6 14.5 3.6 0 4.4-3.2 4.4-18.6 0-14.8 1.2-19.1 6.6-23.3 3.8-3 6-2.7 7.3.9 1.6 4.7 0 7.8-4.6 8.6-4.8.8-6.3 2-6.3 4.9 0 3.2 2.4 4.8 7.1 4.8 5.2 0 8.8-2.6 11.8-8.7 2.2-4.4 2.3-5.1 1.2-10.1-1.6-7.3-6.7-12-11.9-11.1-1.9.3-5.1 1.6-7.1 2.9l-3.6 2.4-1.8-2.3c-2.2-2.9-2.8-2.9-5.7-.6-2 1.6-2.3 2.7-2.1 8.9.2 6.5 0 7.2-2.3 8.7-1.4.9-3.6 1.6-5 1.6-3.3 0-3.9-3.1-2.2-12.1.8-4.1 1.9-12.4 2.5-18.5 1.3-13 .6-16.4-3.4-16.4-2.1 0-3 .8-4.5 4.4zm-3.2 29.8c1.7 1.7 1.5 4.8-.7 8.5-4 6.4-9.9 4.7-8.7-2.6.9-5.9 6.1-9.2 9.4-5.9z"/><path d="M6.2 190.5c-4.7 2.2-5.3 2.8-5 5.1.5 4.2 3.1 5.2 7.4 2.9 3-1.6 3.7-1.7 4.5-.4 1.1 1.7 1.1 14.9 0 28.4-.5 5.5-.6 10.5-.4 11.2.8 2.1 4.3 2.5 6.8.9 2.3-1.5 2.5-2.3 2.5-9.1V222l3.5-1.7c5.5-2.6 7.8-.9 10.6 7.8 2.9 9.1 6.8 13.9 11.4 13.9 7.5 0 8.7-3.2 2.8-7.1-3.3-2.1-4.2-3.6-6.8-11.2-3.4-10.1-5.2-12-10.8-11.5l-3.9.4 3.9-3.6c2.2-1.9 6.8-5.8 10.4-8.5 6.9-5.5 8.8-9.4 5.2-11.4-3-1.5-7.5 1.3-17.4 11l-8.9 8.8v-6.3c0-14.1-4.4-17.4-15.8-12.1zM242.4 192.7c-2.2 2.3-5.4 10.7-5.4 14 0 .7-1.6 1.9-3.5 2.7-4.1 1.8-4.4 3.8-1 7 3.7 3.4 3.6 10.6-.2 13.6-1.5 1.1-3.6 2-4.7 1.8-2-.3-2.1-.9-1.8-8.4.4-9.5-.5-11.8-5.1-13.3-4.4-1.5-8-.2-12.4 4.5-3.2 3.5-3.3 3.5-3.3 1.1 0-4.3-1-5.7-4.1-5.7-3.8 0-4.9 2.4-4.9 10.9 0 6.3-.2 7.1-2.6 9-6.6 5.2-10.2 1.1-8.5-9.7 1.2-7.4.7-9-2.5-9.8-2.8-.7-5.2.9-6.5 4.3-1.8 4.8-10.7 3.5-11.9-1.8-.8-3.2-5.9-4.4-10.3-2.5-5.6 2.3-9.1 7.8-9.5 15-.2 4.9.1 6.8 1.8 9.4 4.1 6.5 13.8 7.8 20 2.6 3-2.5 5.6-8.6 4.5-10.4-.3-.5 0-1 .9-1 .8 0 2.1-.2 2.9-.6 1-.4 1.6.6 2.1 3.7 1 6 6.1 10.9 11.2 10.9 2.2-.1 5-.7 6.4-1.5 2.2-1.2 2.7-1.1 4.2.2 1.6 1.4 2 1.4 4.3-.1 1.8-1.2 2.5-2.5 2.5-4.9 0-3.7 5.1-13.2 7.9-14.7 4.7-2.5 5.2-1.6 4.9 8.1-.3 8.5-.1 9.2 2.1 11 3 2.5 9.5 2.5 14.1 0 3.5-1.8 3.6-1.8 5.9 0 1.6 1.3 3.9 1.9 7.1 1.9 6.1 0 8.8-1 13.3-4.9l3.5-3.1 1.1 2.8c1.6 3.7 6 6.2 11.1 6.2 3.3 0 4.8-.6 7.1-2.9 1.6-1.6 2.9-3.9 2.9-5 0-1.6.6-2.1 2.9-2.1 3.4 0 9.5-3.9 10-6.5.2-1-.5-2.4-1.4-3.1-1.5-1.1-2.4-1-5.6.6-5.9 3-8.4 2.6-10.4-1.6-1.1-2.3-1.5-4.9-1.2-7 .5-2.8.2-3.7-1.8-5-4.4-2.8-6.6-1.5-12.7 7.6-6.8 10.3-12.9 16-16.9 16-3.1 0-4.3-1.6-5.3-7-.7-4.4 0-5.6 4.5-6.4 7.1-1.3 9.5-7.8 3.1-8.4-2.7-.3-3.2-.7-2.7-2 .4-.9 1-4.7 1.2-8.4.8-9.7-2.2-12.6-7.3-7.1zM159 220c0 1.1.9 2.5 2 3.2 3.6 2.3 2 7.9-2.7 9.3-3.4 1-7.7-3.7-6.8-7.3 1.3-5.3 7.5-9.6 7.5-5.2zm115-.6c0 .8.3 2.1.6 2.9.3 1-.4 1.7-2.2 2.1-3.5.9-3.8.4-1.7-3.3 1.9-3.3 3.3-4 3.3-1.7zm4.5 11.6c.8 1.3-1.2 4-2.9 4-2.1 0-4.9-2.6-4.2-3.8.9-1.5 6.3-1.6 7.1-.2z"/><path d="M54.2 197.6c-3.1 2.2-3 7.1.3 8.6 3.4 1.5 7.5-1.2 7.5-5 0-5-3.5-6.6-7.8-3.6zM178.5 198.5c-1.4 1.3-2.5 2.9-2.5 3.5 0 1.5 3.8 5 5.5 5 4.5 0 7.3-8 3.6-10-2.9-1.5-3.9-1.3-6.6 1.5z"/></svg>